<svg xmlns="http://www.w3.org/2000/svg" height="24px" viewBox="0 0 24 24" width="24px" fill="#0A76D8">
  <g>
    <rect fill="none" height="24" width="24"/>
    <g>
      <path d="M12 2C6.48 2 2 6.48 2 12s4.48 10 10 10 10-4.48 10-10S17.52 2 12 2zm-1 17.93c-.32.07-.65.07-.97 0-4.06-1.05-7.1-4.09-8.14-8.14-.07-.32-.07-.65 0-.97 1.05-4.06 4.09-7.1 8.14-8.14.32-.07.65-.07.97 0 4.06 1.05 7.1 4.09 8.14 8.14.07.32.07.65 0 .97-1.05 4.06-4.09 7.1-8.14 8.14zm-.97-6.43L16.29 8.71l1.41 1.41L10.59 15l-4.29-4.29 1.41-1.41L10 12.5l5.29-5.29L16.71 9l-6.68 6.5z"/>
    </g>
  </g>
</svg>
